{"title":"tt0072342","uid":10145145,"size":1825612016,"categoryP":"video","categoryS":"movies","magnet":"?xt=urn:btih:6ae7a8d5602dd2928ff4c900b6ce2c493dbbe972&amp;dn=tt0072342&amp;tr=udp%3A%2F%2Ftracker.openbittorrent.com%3A80&amp;tr=udp%3A%2F%2Fopen.demonii.com%3A1337&amp;tr=udp%3A%2F%2Ftracker.coppersurfer.tk%3A6969&amp;tr=udp%3A%2F%2Fexodus.desync.com%3A6969","seeders":1,"leechers":1,"uploader":"wesleybl","files":2,"time":1400042770,"description":" &lt;a href=&quot;http://www.imdb.com/title/tt0072342&quot; rel=&quot;nofollow&quot; target=&quot;_NEW&quot;&gt;http://www.imdb.com/title/tt0072342&lt;/a&gt;\n\nDirector: Claude Chabrol \n\nPhillipe and Esther live an apparently idyllic life with their daughter, Elise. In an attempt to preserve this bliss, Phillipe decides that he and Esther should each have affairs, being sure to tell each other openly about them. The plan backfires with tragic results as Phillipe becomes engulfed in jealously. \n\n\nVideo\nID                                       : 1\nFormat                                   : AVC\nFormat/Info                              : Advanced Video Codec\nFormat profile                           : &lt;a class=&quot;__cf_email__&quot; href=&quot;/cdn-cgi/l/email-protection&quot; data-cfemail=&quot;86ceefe1eec6cab2a8b7&quot;&gt;[email&amp;#160;protected]&lt;/a&gt;&lt;script cf-hash='f9e31' type=&quot;text/javascript&quot;&gt;\n/* &lt;![CDATA[ */!function(){try{var t=&quot;currentScript&quot;in document?document.currentScript:function(){for(var t=document.getElementsByTagName(&quot;script&quot;),e=t.length;e--;)if(t[e].getAttribute(&quot;cf-hash&quot;))return t[e]}();if(t&amp;&amp;t.previousSibling){var e,r,n,i,c=t.previousSibling,a=c.getAttribute(&quot;data-cfemail&quot;);if(a){for(e=&quot;&quot;,r=parseInt(a.substr(0,2),16),n=2;a.length-n;n+=2)i=parseInt(a.substr(n,2),16)^r,e+=String.fromCharCode(i);e=document.createTextNode(e),c.parentNode.replaceChild(e,c)}}}catch(u){}}();/* ]]&gt; */&lt;/script&gt;\nFormat settings, CABAC                   : Yes\nFormat settings, ReFrames                : 4 frames\nCodec ID                                 : V_MPEG4/ISO/AVC\nDuration                                 : 1h 36mn\nBit rate                                 : 2 200 Kbps\nWidth                                    : 708 pixels\nHeight                                   : 382 pixels\nDisplay aspect ratio                     : 1.647\nFrame rate                               : 29.970 fps\nColor space                              : YUV\nChroma subsampling                       : 4:2:0\nBit depth                                : 8 bits\nScan type                                : Progressive\nBits/(Pixel*Frame)                       : 0.271\nStream size                              : 1.45 GiB (85%)\nWriting library                          : x264 core 130 r2273 b3065e6\n\nAudio\nID                                       : 2\nFormat                                   : AC-3\nFormat/Info                              : Audio Coding 3\nMode extension                           : CM (complete main)\nCodec ID                                 : A_AC3\nDuration                                 : 1h 36mn\nBit rate mode                            : Constant\nBit rate                                 : 320 Kbps\nChannel(s)                               : 2 channels\nChannel positions                        : Front: L R\nSampling rate                            : 48.0 KHz\nBit depth                                : 16 bits\nCompression mode                         : Lossy\nStream size                              : 221 MiB (13%)\nLanguage                                 : French\nDefault                                  : Yes\nForced                                   : No","torrent":{"xt":"urn:btih:6ae7a8d5602dd2928ff4c900b6ce2c493dbbe972","amp;dn":"tt0072342","amp;tr":["udp%3A%2F%2Ftracker.openbittorrent.com%3A80","udp%3A%2F%2Fopen.demonii.com%3A1337","udp%3A%2F%2Ftracker.coppersurfer.tk%3A6969","udp%3A%2F%2Fexodus.desync.com%3A6969"],"infoHash":"6ae7a8d5602dd2928ff4c900b6ce2c493dbbe972","infoHashBuffer":{"type":"Buffer","data":[106,231,168,213,96,45,210,146,143,244,201,0,182,206,44,73,61,187,233,114]},"announce":[],"urlList":[]}}